<svg xmlns="http://www.w3.org/2000/svg" viewBox="0 0 54 54"><path d="M47.139 54H6.861C3.072 54 0 50.928 0 47.139V6.861C0 3.072 3.072 0 6.861 0h40.278C50.928 0 54 3.072 54 6.861v40.278C54 50.928 50.928 54 47.139 54z" fill="#556080"/><path d="M26,4H6.861C5.283,4,4,5.283,4,6.861V26h22V4z" fill="#f0c419"/><path d="M4,28v19.139C4,48.717,5.283,50,6.861,50H26V28H4z" fill="#ed7161"/><path d="M47.139,4H28v22h22V6.861C50,5.283,48.717,4,47.139,4z" fill="#67b9cc"/><path d="M28,50h19.139C48.717,50,50,48.717,50,47.139V28H28V50z" fill="#a4e869"/><circle cx="14.5" cy="15.5" r="7.5" fill="#f29c1f"/><path d="M31.999 15l7-7 7 7-7 7z" fill="#48a0dc"/><path d="M22 45h-7-7l7-14z" fill="#df4d60"/><path d="M39 31l2.528 5.123L47 37l-3.909 3.931.965 5.631L39 43.903l-5.056 2.659.965-5.631L31 37l5.472-.877z" fill="#4fba6f"/></svg>